# Blender 4.4.0
# www.blender.org
mtllib goblin3.mtl
o Cube
v 0.366901 9.293967 2.577321
v 1.646762 3.533581 2.094750
v 0.366901 9.293967 3.154673
v 1.648574 4.257421 3.140692
v -0.657384 9.293967 2.577321
v -1.754783 3.513148 1.486116
v -0.657384 9.293967 3.154673
v -1.957217 4.148603 3.172059
v 1.640446 8.953698 3.300117
v -1.930928 8.953698 3.300117
v 1.640446 8.953698 2.431877
v -1.930928 8.953698 2.431877
v 0.366901 9.827622 3.154673
v -0.657384 9.827622 3.154673
v 0.366901 9.827622 2.577321
v -0.657384 9.827622 2.577321
v 0.750842 10.390748 3.371086
v -1.041324 10.212720 3.371086
v 0.750842 10.390748 2.360908
v -1.041324 10.212720 2.360908
v 0.750842 11.793129 3.371086
v -1.041324 11.793129 3.371086
v 0.750842 11.793129 2.360908
v -1.041324 11.793129 2.360908
v 0.750842 11.615103 3.371086
v -1.041324 11.793129 3.371086
v 0.750842 11.615103 2.360908
v -1.041324 11.793129 2.360908
v 0.252011 12.514871 3.089914
v -0.542493 12.514871 3.089914
v 0.252011 12.514871 2.642081
v -0.542493 12.514871 2.642081
v 1.640446 7.550312 2.805572
v -1.930928 7.550312 3.300117
v 1.640446 7.550312 3.300117
v -1.930928 7.550312 2.805572
v 2.819592 8.686670 2.597082
v 2.819592 8.686670 3.134913
v 2.819592 7.817341 2.597082
v 2.819592 7.817341 3.134913
v 6.043954 8.440778 2.749209
v 6.043954 8.440778 2.982786
v 6.043954 8.063233 2.749209
v 6.043954 8.063233 2.982786
v 7.479185 8.440778 2.749209
v 7.479185 8.063233 2.749209
v 6.632345 8.063233 2.982786
v 6.632345 8.440778 2.982786
v 6.231822 8.320231 3.488064
v 6.231822 8.183780 3.488064
v 6.444478 8.320231 3.488064
v 6.444478 8.183780 3.488064
v 7.479185 8.440778 3.194179
v 7.479185 8.063233 3.194179
v 6.632345 8.063233 3.194179
v 6.632345 8.440778 3.194179
v -2.880723 7.825654 3.129771
v -2.880723 8.678357 3.129771
v -2.880723 8.678357 2.602225
v -2.880723 7.825654 2.602225
v -6.545782 7.960264 3.046491
v -6.545782 8.543748 3.046491
v -6.545782 8.543748 2.685504
v -6.545782 7.960264 2.685504
v -7.612357 8.543748 2.685504
v -7.612357 7.960264 2.685504
v -7.001842 7.960264 3.046491
v -7.001842 8.543748 3.046491
v -6.688629 8.143023 3.810733
v -6.688629 8.360989 3.810733
v -6.858995 8.360989 3.810733
v -6.858995 8.143023 3.810733
v -7.612357 7.960264 3.372441
v -7.612357 8.543748 3.372441
v -7.001842 7.960264 3.372441
v -7.001842 8.543748 3.372441
v -0.243004 3.533583 0.845334
v -0.243004 8.953698 3.753026
v -0.243004 3.533583 3.753026
v -0.243004 8.953698 1.978969
v -0.173280 9.293967 3.455842
v -0.173280 9.293967 2.276152
v -0.173280 9.827622 3.455842
v -0.173280 9.827622 2.276152
v -0.497975 10.556996 4.324906
v -0.194300 10.212720 1.833959
v -0.194300 11.793129 3.898034
v -0.194300 11.793129 1.833959
v -0.303549 11.645976 4.350169
v -0.194300 11.793129 1.833959
v -0.166990 12.514871 3.323521
v -0.166990 12.514871 2.408474
v -0.243004 7.550312 1.231582
v -0.019648 2.610239 3.197154
v 1.417090 2.610239 3.197154
v 1.417090 2.610239 2.534841
v -0.019648 2.610239 2.534841
v 0.434607 -0.351710 2.987750
v 0.962835 -0.351710 2.987750
v 0.962835 -0.351710 2.744245
v 0.434607 -0.351710 2.744245
v 0.838720 -0.911841 2.801461
v 0.558722 -0.911841 2.801461
v 0.464838 -0.550207 4.613901
v 0.932604 -0.550207 4.613901
v 0.574747 -1.046223 4.563235
v 0.822695 -1.046223 4.563235
v -1.700133 2.604656 2.550595
v -1.700133 2.604656 3.181400
v -0.473799 2.604656 2.550595
v -0.473799 2.604656 3.181400
v -1.342901 -0.294975 2.734349
v -1.342901 -0.294975 2.997646
v -0.831031 -0.294975 2.734349
v -0.831031 -0.294975 2.997646
v -1.342901 -0.926158 2.734349
v -0.831031 -0.926158 2.734349
v -1.227366 -0.437440 4.751424
v -0.946566 -0.437440 4.751424
v -1.227366 -0.783693 4.751424
v -0.946566 -0.783693 4.751424
v 0.758241 -0.598747 2.471875
v 0.639202 -0.598747 2.471875
v 0.730271 -0.724975 2.484768
v 0.667172 -0.724975 2.484768
v -1.041653 -0.554691 2.228428
v -1.132280 -0.554691 2.228428
v -1.041653 -0.666442 2.228428
v -1.132280 -0.666442 2.228428
v 1.640446 5.713149 2.805572
v 1.644164 6.044217 3.227200
v -1.930928 5.713149 2.805572
v -0.243004 5.713149 3.753026
v -0.243004 5.713149 1.231568
v 1.733904 11.231744 2.966703
v 1.733904 11.231744 2.765292
v 1.733904 10.952136 2.966703
v 1.733904 10.952136 2.765292
v -2.269931 10.985784 2.876954
v -2.269931 10.985784 2.855041
v -2.269931 11.020066 2.876954
v -2.269931 11.020066 2.855041
vn 0.8677 -0.2369 -0.4369
vn -0.2931 -0.0337 0.9555
vn -0.3728 -0.7085 0.5993
vn -1.0000 -0.0000 -0.0000
vn 0.0471 -0.0000 -0.9989
vn 0.6283 -0.2002 -0.7518
vn -0.1930 0.6676 0.7191
vn -0.0000 -0.9727 0.2321
vn -0.0000 -0.0000 1.0000
vn 0.1825 0.6253 -0.7588
vn -0.9765 -0.2155 -0.0082
vn 0.9830 -0.0000 0.1837
vn -0.0227 -0.0000 0.9997
vn 0.4305 -0.6057 0.6692
vn 1.0000 0.0025 -0.0000
vn -0.0227 -0.0000 -0.9997
vn -0.0000 1.0000 -0.0000
vn -0.5246 -0.0000 -0.8513
vn 1.0000 -0.0000 -0.0000
vn 0.6126 0.1193 0.7813
vn -0.3656 -0.8555 -0.3668
vn -0.9864 -0.1642 -0.0000
vn -0.0000 -0.9971 -0.0761
vn -0.0000 -1.0000 -0.0000
vn 0.5552 0.5970 0.5791
vn -0.0000 -0.8612 -0.5082
vn -0.0000 -0.0632 0.9980
vn 0.4870 -0.0000 0.8734
vn -0.0000 -0.9975 0.0705
vn 0.4870 -0.0000 -0.8734
vn -0.1119 -0.2557 -0.9603
vn -0.2668 0.9637 -0.0000
vn 0.2209 -0.9753 -0.0000
vn 0.4050 -0.5553 0.7264
vn 0.9999 0.0030 -0.0112
vn -0.0000 -0.0705 -0.9975
vn -0.5326 -0.8464 -0.0000
vn -0.9232 -0.0000 -0.3843
vn -0.9925 -0.1223 -0.0000
vn -0.0000 0.7407 -0.6718
vn 0.9705 -0.2411 -0.0000
vn -0.0000 -0.0000 -1.0000
vn 0.2387 0.9589 0.1535
vn 0.2338 -0.0000 0.9723
vn -0.1765 -0.0000 -0.9843
vn -0.8677 -0.2369 -0.4369
vn 0.8746 0.4849 -0.0000
vn 0.2018 0.9101 -0.3620
vn -0.3731 -0.0000 -0.9278
vn -0.3728 -0.7085 -0.5993
vn -0.0000 0.9726 0.2326
vn -0.2592 -0.0000 0.9658
vn -0.3913 -0.7717 0.5014
vn 0.5246 -0.0000 -0.8513
vn -0.7082 -0.7060 -0.0000
vn -0.9768 -0.2140 -0.0074
vn -0.0000 0.9967 0.0810
vn -0.0000 0.9727 0.2321
vn -0.9882 -0.1377 -0.0668
vn -0.9373 -0.0000 0.3485
vn 0.5246 -0.0000 0.8513
vn 0.9903 -0.1392 -0.0000
vn 0.9978 -0.0000 0.0657
vn -0.2653 0.9613 0.0744
vn -0.0367 -0.9993 -0.0000
vn -0.3731 -0.0000 0.9278
vn -0.4336 0.5712 0.6970
vn 0.2018 0.9101 0.3620
vn 0.9232 -0.0000 -0.3843
vn -0.5282 -0.0000 -0.8491
vn -0.9884 -0.1516 -0.0000
vn 0.2756 -0.0458 0.9602
vn -0.5334 0.6793 0.5040
vn -0.4870 -0.0000 0.8734
vn 0.9768 -0.2140 -0.0074
vn -0.5282 -0.0000 0.8491
vn -0.2784 -0.9605 -0.0000
vn -0.0000 -0.1016 -0.9948
vn -0.0000 -0.8896 -0.4567
vn 0.4280 0.4771 -0.7676
vn -0.6355 0.3629 -0.6815
vn -0.0000 -0.7606 -0.6492
vn 0.3119 -0.0113 0.9501
vn 0.3216 -0.8123 -0.4865
vn -0.0000 -0.1016 0.9948
vn 0.4050 -0.5553 -0.7264
vn 0.9884 -0.1516 -0.0000
vn 0.1387 -0.0000 0.9903
vn -0.0367 0.9993 -0.0000
vn 0.9751 -0.1830 0.1250
vn -0.4336 0.5712 -0.6970
vn 0.0760 0.9971 -0.0000
vn -0.4193 -0.3979 0.8160
vn 0.2387 0.9589 -0.1535
vn 0.9763 -0.2163 -0.0000
vn -0.0000 -0.0705 0.9975
vn 0.0760 -0.9971 -0.0000
vn 0.2403 0.9707 -0.0000
vn -0.0000 0.8896 -0.4567
vn -0.9978 -0.0000 0.0657
vn 0.9373 -0.0000 0.3485
vn 0.4864 0.5328 -0.6925
vn -0.8226 0.5686 -0.0000
vn 0.9765 -0.2155 -0.0082
vn -0.3870 0.1609 -0.9079
vn 0.3232 -0.0450 0.9453
vn -0.3210 -0.0000 0.9471
vn -0.0000 -0.9726 0.2326
vn -0.0000 -0.0632 -0.9980
vn 0.5456 0.1462 -0.8252
vn -0.6501 0.7599 -0.0000
vn -0.5246 -0.0000 0.8513
vn -0.6501 -0.7599 -0.0000
vn -0.1765 -0.0000 0.9843
vn 1.0000 -0.0000 -0.0088
vn 0.2076 0.4598 -0.8634
vn -0.9933 -0.0103 -0.1154
vn -0.6820 -0.0000 -0.7314
vn -0.9830 -0.0000 0.1837
vn -0.4870 -0.0000 -0.8734
vn 0.4280 0.4771 0.7676
vn 0.8262 -0.5633 -0.0000
vn 0.9925 -0.1223 -0.0000
vn 0.0471 -0.0000 0.9989
vn 0.1388 -0.0000 -0.9903
vn 0.6413 -0.0000 -0.7673
vn -0.9994 0.0090 -0.0334
vn -0.2076 0.9196 0.3337
vn 0.1312 -0.2551 -0.9580
vn -0.5326 0.8464 -0.0000
vn -0.9720 -0.2351 -0.0000
vn -0.0000 0.9926 0.1212
vn -0.2653 0.9613 -0.0744
vn 0.1670 -0.9487 -0.2684
vn -0.8646 0.3401 0.3698
vn 1.0000 0.0045 -0.0048
vn -0.1930 0.6676 -0.7191
vn 0.1825 0.6253 0.7588
vn -0.2510 -0.2491 -0.9354
vn -0.1960 -0.8497 -0.4894
vn -0.0000 -0.5158 0.8567
vn -0.0000 -0.4303 -0.9027
vn 0.4569 -0.6599 -0.5965
vn -0.9763 -0.2163 -0.0000
vn -0.0000 0.0061 1.0000
vn -0.2076 0.9196 -0.3337
vn 0.9980 -0.0246 0.0589
vn -0.6367 0.3585 -0.6827
vn 0.2684 -0.0000 0.9633
vn 0.6218 0.2445 -0.7440
vn 0.6501 -0.7599 -0.0000
vn -0.9980 -0.0246 0.0589
vn 0.6501 0.7599 -0.0000
vt -0.000000 0.228925
vt 0.021060 0.266617
vt 0.008931 0.278539
vt 0.579065 0.310556
vt 0.491656 0.317660
vt 0.533163 0.253390
vt 0.529343 0.728708
vt 0.546570 0.694485
vt 0.564161 0.742104
vt 0.577671 0.563960
vt 0.580405 0.563960
vt 0.566896 0.723296
vt 0.362362 0.763794
vt 0.354429 0.890183
vt 0.340635 0.765645
vt 0.102722 -0.000000
vt 0.211914 0.172814
vt 0.195967 0.237276
vt 0.220112 0.232663
vt 0.281108 0.215275
vt 0.223495 0.279823
vt 0.801377 0.800733
vt 0.721101 0.806748
vt 0.719713 0.799146
vt 0.421857 0.829732
vt 0.421857 0.797131
vt 0.431424 0.797090
vt 0.340635 0.549780
vt 0.396154 0.523601
vt 0.344856 0.597167
vt 0.788126 0.591960
vt 0.779897 0.599743
vt 0.777627 0.341762
vt 0.474795 0.714625
vt 0.467313 0.835720
vt 0.462852 0.835799
vt 0.614997 0.483474
vt 0.586788 0.345018
vt 0.608321 0.343224
vt 0.838179 0.149438
vt 0.866552 -0.000000
vt 0.871093 0.137304
vt 0.211914 0.314049
vt 0.179600 0.309638
vt 0.436223 0.891581
vt 0.462852 0.752679
vt 0.450808 0.892802
vt 0.433073 0.315929
vt 0.205536 0.658337
vt 0.205536 0.557887
vt 0.209794 0.558456
vt 0.871501 0.499913
vt 0.871501 0.570465
vt 0.863774 0.570632
vt 0.076831 0.929349
vt 0.047329 0.836064
vt 0.076831 0.774719
vt 0.995151 0.594399
vt 0.995151 0.665289
vt 0.970696 0.593217
vt 0.827381 0.477940
vt 0.863774 0.394427
vt 0.824205 0.549732
vt 0.904575 0.768315
vt 0.882018 0.767150
vt 0.899800 0.668395
vt 0.786961 0.312505
vt 0.797135 0.312444
vt 0.797539 0.779699
vt 0.834030 0.773342
vt 0.835349 0.584109
vt 0.826575 0.573337
vt 0.835349 0.573299
vt 0.474256 0.470171
vt 0.433073 0.478018
vt 0.444983 0.315929
vt 0.789413 0.262156
vt 0.791706 0.262142
vt 0.028068 0.896167
vt 0.000000 0.824861
vt 0.046145 0.814890
vt 0.293324 0.747854
vt 0.260307 0.738053
vt 0.293529 0.742058
vt 0.868655 0.184283
vt 0.882018 0.137304
vt 0.872649 0.679873
vt 0.872649 0.999746
vt 0.862449 1.000000
vt 0.877973 0.324303
vt 0.855750 0.275803
vt 0.866675 0.275803
vt 0.211259 0.690271
vt 0.205536 0.690395
vt 0.205536 0.658460
vt 0.854054 0.599743
vt 0.836991 0.656020
vt 0.796975 0.621805
vt 0.323681 0.109073
vt 0.316626 0.192283
vt 0.238926 0.187136
vt 0.752967 0.670658
vt 0.177196 0.605635
vt 0.120150 0.600853
vt 0.121403 0.584328
vt 0.843392 0.824649
vt 0.773875 0.836759
vt 0.857729 0.184283
vt 0.211259 0.658337
vt 0.141264 0.304404
vt 0.159316 0.245720
vt 0.164359 0.774718
vt 0.147736 0.854316
vt 0.127385 0.854316
vt 0.478122 0.650288
vt 0.478122 0.646813
vt 0.189770 0.876800
vt 0.193727 0.957477
vt 0.192020 0.957653
vt 0.938866 0.697164
vt 0.813413 0.549732
vt 0.805427 0.593300
vt 0.801759 0.593300
vt 0.246647 0.096070
vt 0.474256 0.428942
vt 0.474256 0.420756
vt 0.477714 0.420741
vt 0.695427 0.270575
vt 0.719713 0.461023
vt 0.695427 0.370591
vt 0.474256 0.433528
vt 0.477059 0.433548
vt 0.477059 0.437039
vt 0.396154 0.385960
vt 0.433073 0.411208
vt 0.355347 0.410003
vt 0.568244 0.173495
vt 0.614997 0.246574
vt 0.433073 0.714625
vt 0.441537 0.750894
vt 0.777705 0.303147
vt 0.787327 0.260047
vt 0.444485 0.585651
vt 0.444485 0.514657
vt 0.355347 0.501529
vt 0.908000 0.310533
vt 0.882542 0.229439
vt 0.932192 0.308482
vt 0.797135 0.591906
vt 0.529343 0.568512
vt 0.560121 0.484701
vt 0.564161 0.555027
vt 0.189021 0.835127
vt 0.180125 0.877792
vt 0.445683 0.195968
vt 0.433907 0.315929
vt 0.428704 0.315234
vt 0.546570 0.602928
vt 0.047329 0.892004
vt 0.546158 0.879622
vt 0.802860 0.212156
vt 0.834715 0.309567
vt 0.806005 0.309567
vt 0.194065 0.558149
vt 0.204788 0.835605
vt 0.290493 0.759934
vt 0.211988 0.746505
vt 0.211060 0.690395
vt 0.211060 0.696953
vt 0.205536 0.696977
vt 0.882018 0.499771
vt 0.290288 0.765730
vt 0.882018 0.870766
vt 0.896266 0.768315
vt 0.909632 0.862912
vt 0.105002 0.321608
vt 0.083645 0.218791
vt 0.627915 0.342413
vt 0.622359 0.620438
vt 0.615272 0.620591
vt 0.292719 0.078327
vt 0.180125 0.740676
vt 0.096758 0.733686
vt 0.932192 0.148574
vt 0.882018 0.226015
vt 0.908000 0.150625
vt 0.982254 0.556796
vt 0.944294 0.548904
vt 0.340635 0.362766
vt 0.614997 0.300946
vt 0.617787 0.220374
vt 0.627915 0.300667
vt 0.958263 0.393155
vt 0.735860 0.373419
vt 0.736071 0.268389
vt 0.147377 0.399871
vt 0.964750 0.395206
vt 0.719713 0.000000
vt 0.613586 0.484701
vt 0.028912 0.304419
vt 0.062698 0.552714
vt 0.958263 0.066420
vt 0.145038 0.774718
vt 0.066887 0.768166
vt 0.909632 0.948372
vt 0.474256 0.428942
vt 0.477749 0.429956
vt 0.477749 0.432387
vt 0.854055 0.680336
vt 0.858137 0.599825
vt 0.861430 0.599743
vt 0.433073 0.623078
vt 0.474256 0.630312
vt 0.230728 0.187136
vt 0.238449 0.096070
vt 0.265489 0.394208
vt 0.340635 0.524775
vt 0.320722 0.645175
vt 0.944294 0.665911
vt 0.431753 0.194107
vt 0.436581 0.137168
vt 0.103896 0.409888
vt 0.227690 0.046590
vt 0.235889 0.046590
vt 0.788911 0.197721
vt 0.720639 -0.000000
vt 0.459972 0.249872
vt 0.478122 0.141522
vt 0.468935 0.249872
vt 0.826575 0.591307
vt 0.813413 0.577117
vt 0.826575 0.573299
vt 0.867048 0.324303
vt 0.569369 0.126314
vt 0.591323 0.124485
vt 0.603684 0.170543
vt 0.882542 0.225970
vt 0.363865 0.889379
vt 0.368935 0.944443
vt 0.359499 0.945247
vt 0.093056 0.145366
vt 0.982254 0.701645
vt 0.944294 0.708812
vt 0.970696 0.664108
vt 0.327202 0.764359
vt 0.334607 0.861424
vt 0.250082 0.851234
vt 0.213085 0.740044
vt 0.368935 0.716514
vt 0.421857 0.757707
vt 0.368935 0.830604
vt 0.469158 0.141522
vt 0.069894 0.580009
vt 0.071570 0.557887
vt 0.826575 0.584147
vt 0.441324 0.247381
vt 0.180125 0.566989
vt 0.433073 0.496469
vt 0.368935 0.830604
vt 0.405150 0.908108
vt 0.384814 0.908108
vt 0.447658 0.933774
vt 0.433073 0.932553
vt 0.205536 0.877277
vt 0.615499 0.220424
vt 0.180125 0.558432
vt 0.185416 0.557887
vt 0.211914 0.232663
vt 0.429543 0.716514
vt 0.429543 0.796794
vt 0.426765 0.797090
vt 0.445312 0.714625
vt 0.828199 0.549732
vt 0.828199 0.573235
vt 0.813413 0.573299
vt 0.076707 0.557887
vt 0.600262 0.484701
vt 0.858127 0.394427
vt 0.825773 0.394427
vt 0.211914 0.609292
vt 0.292633 0.647928
vt 0.260107 0.712326
vt 0.478122 0.257975
vt 0.000000 0.584010
vt 0.611409 0.810269
vt 0.598365 0.887654
vt 0.578644 0.887654
vt 0.676385 0.674058
vt 0.614997 0.826688
vt 0.625456 0.620591
vt 0.876810 0.499913
vt 0.863774 0.423523
vt 0.876810 0.394427
vt 0.478008 0.420741
vt 0.474256 0.318021
vt 0.478008 0.315929
vt 0.177358 0.850898
vt 0.164359 0.880073
vt 0.614505 0.307604
vt 0.462852 0.714837
vt 0.370101 0.716514
vt 0.768351 0.806486
vt 0.237401 0.396959
vt 0.211914 0.341264
vt 0.454647 0.195968
vt 0.437256 0.315929
vt 0.585982 0.810269
vt 0.564161 0.723296
vt 0.424245 0.830604
vt 0.970365 0.793485
vt 0.573460 -0.000000
vt 0.368935 0.716514
vt 0.813413 0.586662
vt 0.002733 0.226238
vt 0.717189 0.780732
vt 0.717189 0.832413
vt 0.705247 0.832671
vt 0.264468 0.315930
vt 0.564161 0.810269
vt 0.264676 0.712326
vt 0.196519 0.957562
vt 0.334607 0.720756
vt 0.705247 0.780732
vt 0.705247 0.847138
vt 0.676385 0.824127
vt 0.066071 0.008441
vt 0.205536 0.690418
vt 0.719713 0.461104
vt 0.958263 0.257113
vt 0.974508 0.000918
vt 0.974508 0.258149
vt 0.719713 0.635265
vt 0.960123 0.000000
vt 0.000468 0.577837
vt 0.882018 0.229484
vt 0.797136 0.394427
vt 0.929994 0.000000
vt 0.705247 0.780991
vt 0.474256 0.437020
vt 0.247220 -0.000000
vt 0.344857 0.315929
vt 0.076831 0.774719
vt 0.109005 0.826773
vt 0.076831 0.915970
vt 0.931844 0.395206
vt 0.788068 0.373106
vt 0.788279 0.268076
vt 0.431424 0.829691
vt 0.940859 0.738871
vt 0.477714 0.428927
vt 0.047329 0.774718
vt 0.797136 0.549732
vt 0.563926 0.000794
vt 0.260102 0.743850
vt 0.934071 0.395206
vt 0.421857 0.717331
vt 0.211914 0.748600
vt 0.529296 0.175917
vt 0.863774 0.500080
vt 0.109005 0.774718
vt 0.813413 0.549796
vt 0.676385 0.930532
vt 0.797136 0.212156
vt 0.676385 0.780732
vt 0.676385 0.620591
vt 0.718288 0.716222
s 0
usemtl Material
f 124/1/1 100/2/1 102/3/1
f 34/4/2 8/5/2 133/6/2
f 18/7/3 14/8/3 83/9/3
f 23/10/4 27/11/4 25/12/4
f 37/13/5 43/14/5 39/15/5
f 93/16/6 11/17/6 33/18/6
f 81/19/7 10/20/7 78/21/7
f 47/22/8 52/23/8 50/24/8
f 55/25/9 54/26/9 53/27/9
f 82/28/10 11/29/10 80/30/10
f 106/31/11 104/32/11 98/33/11
f 62/34/12 70/35/12 69/36/12
f 62/37/13 57/38/13 58/39/13
f 17/40/14 85/41/14 83/42/14
f 33/18/15 35/43/15 131/44/15
f 63/45/16 60/46/16 64/47/16
f 24/48/17 26/48/17 28/48/17
f 21/49/18 136/50/18 138/51/18
f 45/52/19 53/53/19 54/54/19
f 17/55/20 87/56/20 85/57/20
f 29/58/17 31/59/17 30/60/17
f 87/61/21 25/62/21 89/63/21
f 88/48/17 28/48/17 90/48/17
f 109/64/22 8/65/22 108/66/22
f 106/31/23 103/67/23 102/68/23
f 47/22/24 44/69/24 43/70/24
f 118/71/9 121/72/9 119/73/9
f 25/74/25 91/75/25 89/76/25
f 125/77/26 124/78/26 102/68/26
f 115/79/27 111/80/27 109/81/27
f 47/82/4 56/83/4 48/84/4
f 3/85/28 83/42/28 81/86/28
f 117/87/29 121/88/29 120/89/29
f 82/90/30 15/91/30 1/92/30
f 135/93/19 137/94/19 138/95/19
f 11/96/31 39/97/31 33/98/31
f 59/99/32 58/100/32 7/101/32
f 47/22/8 50/24/8 44/69/8
f 40/102/33 33/98/33 39/97/33
f 64/103/24 61/104/24 67/105/24
f 46/106/24 54/107/24 47/22/24
f 17/40/34 83/42/34 13/108/34
f 135/93/19 138/95/19 136/109/19
f 131/44/35 4/110/35 130/111/35
f 96/112/36 100/113/36 101/114/36
f 18/7/37 139/115/37 140/116/37
f 112/117/38 127/118/38 129/119/38
f 108/66/39 112/120/39 109/64/39
f 100/121/40 122/122/40 123/123/40
f 7/101/32 5/124/32 59/99/32
f 50/125/9 52/126/9 51/127/9
f 110/128/41 79/129/41 111/130/41
f 126/131/42 128/132/42 129/133/42
f 9/134/43 38/135/43 3/136/43
f 35/137/44 78/138/44 133/6/44
f 12/139/45 60/46/45 59/140/45
f 125/77/46 101/141/46 123/142/46
f 31/143/47 29/144/47 25/74/47
f 11/29/48 82/28/48 1/145/48
f 20/146/49 142/147/49 24/148/49
f 102/68/23 107/149/23 106/31/23
f 20/150/50 86/151/50 84/152/50
f 113/153/4 112/117/4 116/154/4
f 68/155/51 71/156/51 70/157/51
f 20/150/50 84/152/50 16/158/50
f 115/79/27 109/81/27 113/159/27
f 34/4/52 133/6/52 78/138/52
f 18/7/53 83/9/53 85/160/53
f 137/161/54 19/162/54 23/163/54
f 18/7/55 20/150/55 16/158/55
f 103/67/56 106/31/56 98/33/56
f 119/164/57 115/165/57 113/153/57
f 42/166/58 49/167/58 48/84/58
f 70/168/9 71/169/9 72/170/9
f 8/65/59 6/171/59 108/66/59
f 43/70/24 46/106/24 47/22/24
f 49/167/60 42/166/60 44/172/60
f 17/173/61 136/174/61 21/175/61
f 4/110/62 95/176/62 96/177/62
f 115/178/63 119/179/63 121/180/63
f 12/181/64 59/99/64 5/124/64
f 64/103/65 60/182/65 57/183/65
f 22/184/66 139/185/66 18/186/66
f 91/187/67 30/60/67 26/188/67
f 3/136/68 81/189/68 9/134/68
f 103/67/26 125/77/26 102/68/26
f 117/190/69 126/191/69 114/192/69
f 20/146/70 24/148/70 88/193/70
f 101/141/71 94/194/71 97/195/71
f 35/43/72 133/196/72 131/44/72
f 1/92/19 15/91/19 13/108/19
f 91/187/73 26/188/73 89/197/73
f 110/128/41 77/198/41 79/129/41
f 23/10/74 90/199/74 27/11/74
f 22/48/17 89/48/17 26/48/17
f 99/200/75 107/201/75 102/3/75
f 18/186/76 87/202/76 22/184/76
f 57/183/77 36/203/77 34/204/77
f 17/173/28 21/175/28 87/205/28
f 122/206/78 124/207/78 125/208/78
f 116/209/79 129/210/79 128/211/79
f 101/141/71 98/33/71 94/194/71
f 92/212/80 31/143/80 27/213/80
f 7/101/4 14/214/4 16/215/4
f 36/216/81 80/217/81 93/218/81
f 6/171/82 110/219/82 108/66/82
f 68/155/17 62/220/17 63/221/17
f 79/222/83 95/176/83 4/110/83
f 5/124/70 84/223/70 82/224/70
f 2/225/84 97/195/84 77/226/84
f 74/227/4 66/228/4 73/229/4
f 104/230/85 107/231/85 105/232/85
f 1/92/19 13/108/19 3/85/19
f 19/162/86 15/91/86 84/233/86
f 95/176/87 99/200/87 96/177/87
f 40/234/88 38/235/88 9/236/88
f 22/184/66 141/237/66 139/185/66
f 41/238/42 45/239/42 46/240/42
f 58/100/89 59/99/89 63/221/89
f 96/177/90 2/241/90 4/110/90
f 92/242/91 28/243/91 32/244/91
f 41/245/92 37/246/92 38/247/92
f 18/7/37 140/116/37 20/150/37
f 49/167/58 51/248/58 48/84/58
f 8/249/93 111/250/93 79/251/93
f 31/59/17 92/242/17 32/244/17
f 65/252/17 74/227/17 68/155/17
f 75/253/24 73/254/24 67/105/24
f 118/71/9 120/255/9 121/72/9
f 74/227/17 76/256/17 68/155/17
f 41/245/92 38/247/92 42/166/92
f 73/254/24 66/257/24 67/105/24
f 7/101/4 16/215/4 5/124/4
f 37/258/94 11/29/94 1/145/94
f 102/3/95 100/2/95 99/200/95
f 95/259/96 98/260/96 99/261/96
f 114/192/19 115/178/19 117/190/19
f 64/47/42 66/262/42 65/263/42
f 44/69/97 40/102/97 43/70/97
f 38/135/98 37/258/98 3/136/98
f 114/264/99 127/118/99 112/117/99
f 117/190/69 128/265/69 126/191/69
f 120/266/100 118/267/100 113/153/100
f 81/19/76 83/268/76 14/214/76
f 48/269/101 51/270/101 52/271/101
f 92/212/102 27/213/102 90/272/102
f 57/183/77 60/182/77 36/203/77
f 32/244/103 28/243/103 26/188/103
f 76/273/9 74/274/9 73/275/9
f 99/200/104 105/276/104 107/201/104
f 62/37/13 61/277/13 57/38/13
f 19/162/30 86/278/30 88/279/30
f 6/280/105 134/281/105 77/282/105
f 131/44/106 79/222/106 4/110/106
f 133/6/107 8/5/107 79/283/107
f 61/104/108 69/284/108 67/105/108
f 110/285/109 114/286/109 112/287/109
f 134/288/110 2/289/110 77/290/110
f 17/291/111 135/292/111 136/293/111
f 19/294/112 137/295/112 135/296/112
f 23/112/113 138/297/113 137/298/113
f 10/299/114 58/39/114 57/38/114
f 1/145/98 3/136/98 37/258/98
f 130/111/115 33/18/115 131/44/115
f 62/34/12 69/36/12 61/300/12
f 64/47/42 65/263/42 63/45/42
f 93/301/116 80/30/116 11/29/116
f 54/107/24 55/302/24 47/22/24
f 82/90/30 84/233/30 15/91/30
f 132/303/117 6/280/117 8/304/117
f 93/218/118 132/303/118 36/216/118
f 67/105/24 66/257/24 64/103/24
f 24/48/17 22/48/17 26/48/17
f 67/305/119 72/306/119 71/156/119
f 122/206/78 125/208/78 123/131/78
f 87/307/120 21/308/120 25/12/120
f 88/48/17 24/48/17 28/48/17
f 5/124/70 16/215/70 84/223/70
f 18/7/55 16/158/55 14/8/55
f 25/74/121 29/144/121 91/75/121
f 95/259/96 94/309/96 98/260/96
f 116/209/79 128/211/79 117/87/79
f 74/227/4 65/252/4 66/228/4
f 17/40/122 15/91/122 19/162/122
f 92/242/91 90/310/91 28/243/91
f 114/192/123 111/130/123 115/178/123
f 40/234/124 42/311/124 38/235/124
f 11/312/125 37/13/125 39/15/125
f 104/230/85 106/313/85 107/231/85
f 130/111/126 93/16/126 33/18/126
f 124/1/1 122/314/1 100/2/1
f 68/315/19 76/316/19 75/317/19
f 8/304/127 34/318/127 132/303/127
f 68/155/51 70/157/51 62/220/51
f 34/318/4 36/216/4 132/303/4
f 117/87/29 120/89/29 116/209/29
f 32/244/17 30/60/17 31/59/17
f 10/20/128 81/19/128 7/101/128
f 110/285/109 112/287/109 108/319/109
f 48/84/17 56/83/17 53/320/17
f 114/264/99 126/321/99 127/118/99
f 35/137/44 9/236/44 78/138/44
f 53/320/17 45/322/17 48/84/17
f 91/187/17 29/58/17 30/60/17
f 12/323/129 36/324/129 60/325/129
f 48/84/17 41/245/17 42/166/17
f 63/221/17 65/252/17 68/155/17
f 24/148/130 141/237/130 22/184/130
f 130/111/126 134/326/126 93/16/126
f 70/168/9 72/170/9 69/327/9
f 64/103/65 57/183/65 61/104/65
f 119/164/57 113/153/57 118/267/57
f 97/195/131 79/328/131 77/226/131
f 98/329/132 105/330/132 99/331/132
f 40/102/33 35/332/33 33/98/33
f 24/148/130 142/147/130 141/237/130
f 98/329/132 104/333/132 105/330/132
f 97/195/131 94/194/131 79/328/131
f 3/85/28 13/108/28 83/42/28
f 58/100/133 10/20/133 7/101/133
f 62/220/89 58/100/89 63/221/89
f 40/102/97 39/97/97 43/70/97
f 67/305/119 71/156/119 68/155/119
f 40/234/88 9/236/88 35/137/88
f 69/284/108 72/334/108 67/105/108
f 112/117/38 129/119/38 116/154/38
f 100/2/87 96/177/87 99/200/87
f 139/185/4 141/237/4 142/147/4
f 139/185/4 142/147/4 140/335/4
f 17/40/122 13/108/122 15/91/122
f 23/48/17 88/48/17 90/48/17
f 22/336/134 87/61/134 89/63/134
f 10/299/114 57/38/114 34/4/114
f 18/186/135 85/337/135 87/202/135
f 4/110/136 2/241/136 130/111/136
f 41/238/42 46/240/42 43/14/42
f 68/315/19 75/317/19 67/338/19
f 126/131/42 129/133/42 127/339/42
f 34/4/52 78/138/52 10/299/52
f 82/224/137 80/340/137 12/181/137
f 81/189/138 78/341/138 9/134/138
f 36/342/139 12/343/139 80/344/139
f 6/171/140 77/345/140 110/219/140
f 93/218/118 134/281/118 132/303/118
f 31/143/47 25/74/47 27/213/47
f 79/328/141 94/194/141 95/346/141
f 32/244/103 26/188/103 30/60/103
f 2/225/142 96/347/142 97/195/142
f 23/163/30 19/162/30 88/279/30
f 114/192/123 110/128/123 111/130/123
f 19/162/143 84/233/143 86/278/143
f 23/10/4 25/12/4 21/308/4
f 55/25/9 53/27/9 56/348/9
f 45/322/17 41/245/17 48/84/17
f 125/77/46 103/67/46 101/141/46
f 63/45/16 59/140/16 60/46/16
f 112/120/39 113/349/39 109/64/39
f 50/125/9 51/127/9 49/350/9
f 81/19/76 14/214/76 7/101/76
f 98/33/144 101/141/144 103/67/144
f 37/13/5 41/238/5 43/14/5
f 8/351/145 109/81/145 111/80/145
f 100/121/40 123/123/40 101/352/40
f 40/234/124 44/353/124 42/311/124
f 20/146/49 140/335/49 142/147/49
f 47/82/4 55/354/4 56/83/4
f 5/124/146 82/224/146 12/181/146
f 20/146/70 88/193/70 86/355/70
f 48/269/101 52/271/101 47/356/101
f 117/190/147 115/178/147 121/180/147
f 49/167/60 44/172/60 50/357/60
f 6/280/148 132/303/148 134/281/148
f 131/358/149 133/6/149 79/283/149
f 45/52/19 54/54/19 46/359/19
f 96/112/36 101/114/36 97/360/36
f 76/273/9 73/275/9 75/361/9
f 134/288/150 130/362/150 2/289/150
f 17/40/151 19/162/151 135/363/151
f 116/154/152 120/266/152 113/153/152
f 23/364/153 21/365/153 138/366/153
